<svg xmlns="http://www.w3.org/2000/svg" enable-background="new 0 0 527.973 405.613" viewBox="0 0 527.973 405.613" id="trampoline"><circle cx="263.986" cy="22.5" r="22.5" fill="#f5dcb7" class="color000000 svgShape"></circle><path d="M255.405 128.443c3.251.151 6.262-.966 8.579-2.9 2.328 1.943 5.356 3.061 8.624 2.899v-.002c.121-.004.463-.014 1.006-.014 4.876-.03 25.266.817 46.488 11.523 2.032.986 5.91 3.622 9.949 6.871 6.134 4.889 12.982 11.179 18.192 16.178 2.609 2.501 4.821 4.688 6.372 6.235.774.776 1.384 1.393 1.794 1.81.41.418.604.618.605.618 2.45 2.525 5.708 3.794 8.971 3.794 3.136 0 6.275-1.173 8.703-3.529 4.956-4.809 5.075-12.721.268-17.675-.104-.104-6.83-7.038-15.449-14.975-4.316-3.973-9.101-8.196-13.866-11.998-4.811-3.813-9.428-7.186-14.323-9.673-17.15-8.578-33.273-11.979-44.471-13.318l3.375-44.793c1.783.964 3.872 2.315 6.186 4.223 7.274 6.029 16.903 17.752 25.291 40.794 1.182 3.25 4.249 5.269 7.52 5.269.907 0 1.831-.155 2.733-.483 4.151-1.509 6.294-6.1 4.785-10.251-9.715-26.754-21.771-41.376-32.077-49.2-10.289-7.844-18.586-8.644-19.845-8.684-.047-.002-.092.002-.138 0-.447-.08-.905-.129-1.375-.129h-3.319C275.689 44.746 270.098 47 263.987 47c-6.11 0-11.701-2.254-15.997-5.967h-3.322c-.47 0-.928.049-1.375.129-.045.002-.09-.002-.136 0-1.258.039-9.556.84-19.846 8.685-10.306 7.824-22.361 22.444-32.075 49.197-1.514 4.153.63 8.743 4.781 10.254.902.328 1.826.483 2.733.483 3.271 0 6.339-2.018 7.522-5.268 8.951-24.582 19.295-36.274 26.723-41.93 1.752-1.331 3.345-2.324 4.754-3.083l3.374 44.786c-11.199 1.34-27.323 4.74-44.473 13.321-4.893 2.485-9.511 5.859-14.321 9.67-14.204 11.358-29.118 26.789-29.314 26.973-4.808 4.954-4.689 12.867.265 17.677 2.429 2.357 5.569 3.529 8.706 3.529 3.262 0 6.52-1.269 8.972-3.794 0-.002.359-.374 1.078-1.103 2.515-2.542 9.13-9.133 16.441-15.691 3.648-3.273 7.474-6.539 10.955-9.235 3.447-2.691 6.673-4.823 8.435-5.685 21.221-10.705 41.611-11.554 46.49-11.522.418 0 .72.005.89.012.051 0 .09 0 .118.001v.001C255.405 128.443 255.405 128.443 255.405 128.443zM263.986 209.047C118.19 209.047 0 231.926 0 260.148c0 1.064.189 2.119.52 3.167v102.849h14v-89.269c22.076 12.325 67.832 22.506 126.736 28.505v100.213h17.959v-98.548c32.121 2.691 67.542 4.186 104.771 4.186s72.65-1.495 104.772-4.186v98.548h17.959V305.4c58.903-5.999 104.66-16.181 126.736-28.505v89.269h14V263.315c.331-1.048.519-2.103.519-3.167C527.973 231.926 409.779 209.047 263.986 209.047zM263.986 285.977c-118.6 0-214.742-14.537-214.742-32.469s96.143-32.471 214.742-32.471c118.596 0 214.742 14.539 214.742 32.471S382.582 285.977 263.986 285.977z" fill="#f5dcb7" class="color000000 svgShape"></path><ellipse cx="263.986" cy="252.86" rx="195.371" ry="27.12" fill="#f5dcb7" class="color000000 svgShape"></ellipse></svg>